# xmcd
#
# Track frame offsets:
#	150
#	13854
#	24169
#	32984
#	42817
#	74547
#	91548
#	111789
#	137060
#	150805
#	166870
#	179540
#	197892
#	221082
#	227746
#
# Disc length: 3210 seconds
#
# Revision: 1
# Processed by: cddbd v1.5.1PL0 Copyright (c) Steve Scherf et al.
# Submitted via: CDex 1.50Beta5
#
DISCID=bf0c880f
DTITLE=cigarett - killermont street 2001
DYEAR=2001
DGENRE=Rock
TTITLE0=cigarett/it would be nice
TTITLE1=Cymbals/〔LOVE Is Like〕A Heart Wave
TTITLE2=CITROBAL/DAY BY DAY
TTITLE3=Sylvia55/Molly
TTITLE4=advantage Lucy/地球〔far away ver.〕
TTITLE5=polyABC/18 candles
TTITLE6=maybelle/かげぼうしの頃
TTITLE7=JET LAG/FLOATER remix version by COLOR FILTER
TTITLE8=patrasche/World of reason
TTITLE9=Raymonds/Pages
TTITLE10=Sonic Coaster Pop/sunny side up!
TTITLE11=Apila/GOODBYE DAYDREAM
TTITLE12=RUNT STAR/落陽とファンファーレ
TTITLE13=our our/10,000 groups I don’t like
TTITLE14=SUNNY SIDE SUPER STAR/夢は終わった〔And theress no one around me〕
EXTD=
EXTT0=
EXTT1=
EXTT2=
EXTT3=
EXTT4=
EXTT5=
EXTT6=
EXTT7=
EXTT8=
EXTT9=
EXTT10=
EXTT11=
EXTT12=
EXTT13=
EXTT14=
PLAYORDER=
